<?xml version="1.0" encoding="UTF-8"?>
<svg version="1.1" xmlns="http://www.w3.org/2000/svg" width="1392" height="635">
<path d="M0 0 C459.36 0 918.72 0 1392 0 C1392 209.55 1392 419.1 1392 635 C932.64 635 473.28 635 0 635 C0 425.45 0 215.9 0 0 Z " fill="#FEFEFE" transform="translate(0,0)"/>
<path d="M0 0 C2 2 2 2 2.23486328 3.97412109 C2.12717469 10.57503276 1.61263487 17.06588352 0.875 23.625 C0.67922363 25.41296997 0.67922363 25.41296997 0.47949219 27.23706055 C-0.92227035 39.77288929 -2.53402224 52.28272527 -4.1305542 64.79495239 C-5.82965564 78.13758045 -7.41194187 91.48907918 -8.875 104.859375 C-8.95336342 105.57402609 -9.03172684 106.28867718 -9.1124649 107.02498436 C-9.89208705 114.13838065 -10.66528542 121.25239893 -11.42101288 128.36837578 C-11.63566922 130.38186417 -11.85295864 132.39504904 -12.07128906 134.40814209 C-12.33905054 136.88070255 -12.60204419 139.35378583 -12.859375 141.82745361 C-13.47033429 147.42699731 -14.20798129 152.65245765 -16 158 C-18.61328125 158.8359375 -18.61328125 158.8359375 -22 159 C-24.37980515 157.27089896 -26.17289852 155.71101287 -28.1875 153.625 C-29.3360276 152.49873259 -30.48710296 151.37505781 -31.640625 150.25390625 C-32.20845703 149.69590332 -32.77628906 149.13790039 -33.36132812 148.56298828 C-35.60993334 146.41823701 -38.00177727 144.49017997 -40.4375 142.5625 C-43.62097423 140.03156807 -46.63844744 137.42428684 -49.55078125 134.58984375 C-50.16445557 133.99679443 -50.77812988 133.40374512 -51.41040039 132.79272461 C-52.60834722 131.62530277 -53.79448682 130.44560075 -54.96655273 129.25219727 C-57.84396472 126.45535449 -59.72345906 125.0895921 -63.6171875 123.828125 C-67.08100035 123.68765702 -67.08100035 123.68765702 -69.5546875 125.921875 C-70.32039062 126.85515625 -71.08609375 127.7884375 -71.875 128.75 C-72.29716797 129.25080078 -72.71933594 129.75160156 -73.15429688 130.26757812 C-74.46006134 131.82707858 -75.73171604 133.40994221 -77 135 C-78.13308594 136.38445312 -78.13308594 136.38445312 -79.2890625 137.796875 C-80.77173037 139.60960675 -82.24823791 141.42739346 -83.71875 143.25 C-86.86076412 147.03763346 -90.19915181 150.62994271 -93.53125 154.25 C-95.94378104 156.93737634 -98.2325621 159.68965444 -100.5 162.5 C-103.55348679 166.28460334 -106.70668301 169.92207537 -110 173.5 C-114.11378909 177.9698512 -117.97087297 182.59044893 -121.78515625 187.31640625 C-124.66480887 190.80550916 -127.70693876 194.12996921 -130.75390625 197.47265625 C-133.06187598 200.06962393 -135.25555863 202.73404013 -137.4375 205.4375 C-141.34985873 210.27161863 -145.46267279 214.8770699 -149.66796875 219.45703125 C-155.22342187 225.51498767 -160.51537261 231.7900073 -165.80786133 238.07714844 C-168.68649401 241.48440903 -171.62094092 244.82683724 -174.625 248.125 C-178.36706988 252.24392144 -181.91293457 256.47644992 -185.33959961 260.86157227 C-187.16862341 263.114658 -189.10881011 265.06322108 -191.26147461 267.00732422 C-198.83353593 274.15773036 -202.13746329 279.99487919 -202.48828125 290.52734375 C-202.55870766 294.67917058 -202.43395521 298.77858374 -202.3125 302.9375 C-202.1578125 313.8584375 -202.1578125 313.8584375 -202 325 C-184.18 325 -166.36 325 -148 325 C-148 340.84 -148 356.68 -148 373 C-165.82 373 -183.64 373 -202 373 C-201.93822252 390.35172277 -201.93822252 390.35172277 -201.83984375 407.703125 C-201.79157708 414.78483292 -201.74750655 421.8663858 -201.72900391 428.94824219 C-201.71380898 434.66076054 -201.67931247 440.37287208 -201.63169098 446.08520889 C-201.61690652 448.25953756 -201.60896068 450.43392431 -201.60811615 452.60830307 C-201.60573595 455.66492329 -201.5785709 458.7204288 -201.54589844 461.77685547 C-201.55344398 463.111511 -201.55344398 463.111511 -201.56114197 464.47312927 C-201.44054744 471.8126354 -199.8750736 479.04926657 -194.625 484.4375 C-183.39429767 491.12244186 -171.01285884 491.79246336 -158.375 488.625 C-156.57746575 488.10313522 -154.78572799 487.56093473 -153 487 C-150.69 486.34 -148.38 485.68 -146 485 C-146 503.15 -146 521.3 -146 540 C-147.65 540 -149.3 540 -151 540 C-151 540.66 -151 541.32 -151 542 C-170.33314372 545.34855104 -189.55270632 548.33069985 -209 544 C-209.98226562 543.80535156 -210.96453125 543.61070312 -211.9765625 543.41015625 C-226.23764168 540.29630304 -238.11029344 533.4243546 -246.23632812 521.12939453 C-251.59875001 512.12624204 -255.15631328 502.31303619 -257 492 C-257.16753784 491.06837036 -257.33507568 490.13674072 -257.50769043 489.17687988 C-259.41747501 476.92070411 -259.25348952 464.7256108 -259.1953125 452.34765625 C-259.19157483 449.99254986 -259.18873143 447.63744189 -259.18673706 445.28233337 C-259.17915992 439.13233016 -259.15956332 432.98242385 -259.1373291 426.8324585 C-259.11674205 420.53740753 -259.10770804 414.24234067 -259.09765625 407.94726562 C-259.07631099 395.63146134 -259.04117816 383.31575395 -259 371 C-269.23 371 -279.46 371 -290 371 C-289.82597656 367.97457031 -289.65195312 364.94914062 -289.47265625 361.83203125 C-289.35525245 358.86002117 -289.26443029 355.88828106 -289.17602539 352.9152832 C-289.10114949 350.86883634 -288.99918905 348.82317688 -288.8684082 346.77954102 C-287.85567233 335.34585655 -287.85567233 335.34585655 -291.43609619 324.81329346 C-294.90007785 320.98475695 -298.87754754 318.0479272 -303.18487549 315.23474121 C-305.76712167 313.47816432 -307.99002994 311.39756254 -310.25 309.25 C-313.54292966 306.26136747 -316.91316769 303.41616395 -320.375 300.625 C-324.38842853 297.38034088 -328.22265294 294.01106207 -332 290.5 C-335.93721811 286.86771013 -339.88471167 283.25334991 -343.9375 279.75 C-344.79214844 279.00234375 -345.64679688 278.2546875 -346.52734375 277.484375 C-348.87523308 275.80004079 -348.87523308 275.80004079 -351.48828125 275.9296875 C-354.87461214 277.37269631 -356.90091521 279.64045905 -359.25 282.375 C-359.72743652 282.91302246 -360.20487305 283.45104492 -360.69677734 284.00537109 C-364.52332123 288.35145904 -368.18283449 292.8325943 -371.8125 297.34375 C-374.01037098 300.01259334 -376.29327516 302.5727066 -378.625 305.125 C-382.67410672 309.56549665 -386.39179397 314.19679326 -390 319 C-389.29359375 319.07476562 -388.5871875 319.14953125 -387.859375 319.2265625 C-363.37760054 322.3636743 -339.81576226 331.93841501 -324.1875 351.75 C-317.1038114 361.73915797 -310.68046177 373.42453615 -309.4296875 385.76171875 C-309.34702637 386.55924561 -309.26436523 387.35677246 -309.17919922 388.1784668 C-309.09049561 389.08012573 -309.09049561 389.08012573 -309 390 C-316.36776884 392.28256683 -323.73687181 394.56078521 -331.10693359 396.8359375 C-333.6157093 397.61096941 -336.12417406 398.38700857 -338.63232422 399.1640625 C-342.23063834 400.27867264 -345.83004306 401.38969481 -349.4296875 402.5 C-350.55680145 402.84998047 -351.68391541 403.19996094 -352.84518433 403.56054688 C-353.88611237 403.88087891 -354.92704041 404.20121094 -355.99951172 404.53125 C-356.91884491 404.81548828 -357.8381781 405.09972656 -358.78536987 405.39257812 C-361 406 -361 406 -363 406 C-363.23074219 405.03320312 -363.46148438 404.06640625 -363.69921875 403.0703125 C-367.10831956 389.27410766 -371.29283794 378.27644024 -383.94921875 370.58203125 C-394.68402317 365.01532729 -407.62079702 364.13323652 -419.1875 367.5 C-430.2768995 371.72875768 -438.90019892 378.98043761 -443.83984375 389.84765625 C-449.40426052 402.95096026 -451.35535537 415.03859918 -451.31567383 429.25634766 C-451.31253381 431.59976666 -451.33597028 433.94189423 -451.36132812 436.28515625 C-451.44131853 455.19685424 -448.49944973 475.01702679 -434.86328125 489.2265625 C-430.54952931 493.25468401 -426.67501861 496.14094218 -421 498 C-420.27039063 498.27585937 -419.54078125 498.55171875 -418.7890625 498.8359375 C-405.87274349 503.16787218 -390.39782019 502.55824062 -378 497 C-367.19731765 491.54895323 -361.17531881 482.11470363 -356.875 471.125 C-355.66328613 466.79745047 -354.82043638 462.41639157 -354 458 C-348.72295302 458.60612012 -343.58879709 459.42239524 -338.38671875 460.5234375 C-337.34412651 460.74370102 -337.34412651 460.74370102 -336.2804718 460.96841431 C-334.82050463 461.27776538 -333.36088677 461.58876932 -331.90161133 461.90136719 C-329.70429009 462.37140834 -327.50558793 462.83450827 -325.30664062 463.296875 C-317.46783592 464.95815337 -309.69828373 466.76271534 -302 469 C-304.24909547 490.78601436 -312.28109888 510.38138936 -329 525 C-355.26775713 545.6034708 -390.37856221 548.92166017 -422.5859375 545.50390625 C-442.4649041 542.85563574 -460.14815153 536.4848667 -476 524 C-476.69738281 523.46890625 -477.39476562 522.9378125 -478.11328125 522.390625 C-485.71599762 516.23531956 -492.35091064 507.57599008 -497 499 C-497 498.34 -497 497.68 -497 497 C-497.66 497 -498.32 497 -499 497 C-501.4852736 491.09921071 -503.70299551 485.12712722 -505.75 479.0625 C-505.97260498 478.4120874 -506.19520996 477.7616748 -506.42456055 477.09155273 C-507.36718268 474.26072793 -508 472.00620836 -508 469 C-508.66 469 -509.32 469 -510 469 C-510.33 465.7 -510.66 462.4 -511 459 C-511.66 459 -512.32 459 -513 459 C-513.33837891 459.81791016 -513.33837891 459.81791016 -513.68359375 460.65234375 C-515.3914321 463.69807327 -517.67054446 466.05320785 -520.0625 468.5625 C-524.50328463 473.30598271 -528.66294369 478.19830402 -532.734375 483.265625 C-535.92222703 487.11303263 -539.31788201 490.75381643 -542.73828125 494.39453125 C-545.08501019 496.98564753 -545.08501019 496.98564753 -547.04296875 500.07421875 C-549 503 -549 503 -551 504.9921875 C-553.46496302 507.46677928 -555.12613402 510.17933947 -557 513.125 C-566.98348952 527.98730835 -582.33157621 536.24613722 -599.0625 541.375 C-599.84044922 541.61379883 -600.61839844 541.85259766 -601.41992188 542.09863281 C-614.22524668 545.75200995 -627.15225945 546.41126076 -640.375 546.375 C-641.15903198 546.37412384 -641.94306396 546.37324768 -642.75085449 546.37234497 C-664.81364656 546.29141708 -684.92859997 543.77208569 -704 532 C-705.25876953 531.25363281 -705.25876953 531.25363281 -706.54296875 530.4921875 C-729.9812142 516.15919841 -742.98556721 494.02556844 -749.54785156 467.81152344 C-754.21003641 447.28122634 -753.77914025 424.45554426 -749 404 C-748.7215625 402.72640625 -748.443125 401.4528125 -748.15625 400.140625 C-743.45248363 380.59566476 -734.21522379 362.26160298 -720 348 C-718.73542969 346.71222656 -718.73542969 346.71222656 -717.4453125 345.3984375 C-696.80063149 325.14950118 -669.30325064 318.33955876 -641.16503906 318.59570312 C-615.27684707 319.20583864 -591.97159744 326.87903125 -573 345 C-571.27521958 346.95874023 -569.64191089 348.96958861 -568 351 C-567.278125 351.721875 -566.55625 352.44375 -565.8125 353.1875 C-564 355 -564 355 -562 358 C-562 358.99 -562 359.98 -562 361 C-561.34 361 -560.68 361 -560 361 C-557.46862469 364.61142878 -555.96026391 368.44292241 -554.4375 372.5625 C-552.85112597 376.908332 -552.85112597 376.908332 -550.90234375 381.09375 C-549.81990153 383.38046776 -549.49358498 385.43638764 -549.125 387.9375 C-548.02723867 394.48865631 -546.06418004 400.69723668 -544 407 C-539.39834424 401.98495673 -534.89367713 396.92804013 -530.625 391.625 C-526.94363311 387.07139288 -523.07225527 382.76417484 -519.08642578 378.48095703 C-516.09587359 375.24823796 -513.26228315 371.93312334 -510.5 368.5 C-506.8643595 363.98141824 -503.03163598 359.72016671 -499.08374023 355.47827148 C-496.11284372 352.2670095 -493.30038923 348.97372185 -490.5625 345.5625 C-487.17862667 341.35388335 -483.62687032 337.37520438 -479.9375 333.4375 C-475.66969544 328.88026191 -471.65970479 324.21554539 -467.81640625 319.2890625 C-465.46511712 316.32593254 -462.97163099 313.50560755 -460.4453125 310.69140625 C-458.81530246 308.85167404 -458.81530246 308.85167404 -457 306 C-456.34 306 -455.68 306 -455 306 C-454.72760498 305.40993164 -454.45520996 304.81986328 -454.17456055 304.21191406 C-453.02771685 302.05219593 -451.81728304 300.43982083 -450.20703125 298.609375 C-449.66304687 297.98675781 -449.1190625 297.36414063 -448.55859375 296.72265625 C-447.98238281 296.07167969 -447.40617187 295.42070312 -446.8125 294.75 C-445.92304687 293.73486328 -445.92304687 293.73486328 -445.015625 292.69921875 C-443.34734516 290.79627977 -441.67422554 288.89770692 -440 287 C-438.83267366 285.66724417 -437.66583062 284.33406441 -436.5 283 C-435.97792969 282.40445312 -435.45585938 281.80890625 -434.91796875 281.1953125 C-427.40434691 272.59519951 -419.94478153 263.94849692 -412.52075195 255.27099609 C-408.32289271 250.36787448 -404.09652735 245.48988187 -399.86425781 240.61645508 C-396.13920722 236.32394247 -392.44002309 232.0101322 -388.75 227.6875 C-384.63076674 222.86268518 -380.4251088 218.13140333 -376.15234375 213.44140625 C-373.80336043 210.77695148 -371.59062341 208.02606778 -369.375 205.25 C-365.85890728 200.93757966 -362.58842901 197.1766047 -358 194 C-353.33441517 194.15296999 -351.13538171 196.3466756 -347.875 199.5 C-346.90457643 200.42032869 -345.93186042 201.33824534 -344.95703125 202.25390625 C-344.46541504 202.71684082 -343.97379883 203.17977539 -343.46728516 203.65673828 C-341.24846066 205.68801488 -338.91056263 207.55837028 -336.5625 209.4375 C-332.0260327 213.09635769 -327.741339 216.94868963 -323.47851562 220.91601562 C-320.26718772 223.8870119 -316.97381211 226.69953832 -313.5625 229.4375 C-309.37762447 232.80346464 -305.41687569 236.33177829 -301.5 240 C-296.72514758 244.47137497 -291.81751545 248.67811907 -286.69921875 252.7578125 C-284.7493738 254.37751004 -282.91135782 255.99725403 -281.08203125 257.7421875 C-280.12683594 258.65226562 -279.17164063 259.56234375 -278.1875 260.5 C-277.33542969 261.3353125 -276.48335937 262.170625 -275.60546875 263.03125 C-272.54533559 265.34355451 -270.84224881 266.10084643 -267 266 C-264.39251735 264.09967699 -264.39251735 264.09967699 -262.1875 261.25 C-261.75937012 260.74774902 -261.33124023 260.24549805 -260.89013672 259.72802734 C-259.57080861 258.16926381 -258.28229385 256.58930794 -257 255 C-256.26652344 254.10023438 -255.53304688 253.20046875 -254.77734375 252.2734375 C-253.32053655 250.48085078 -251.86751484 248.68518212 -250.41796875 246.88671875 C-247.69301496 243.63350251 -244.83802339 240.53347279 -241.9375 237.4375 C-237.70066087 232.91409214 -233.73823885 228.27935555 -229.921875 223.390625 C-227.18301939 219.98375583 -224.22678017 216.79047827 -221.28125 213.5625 C-218.95971179 210.95474475 -216.75469645 208.27958856 -214.5625 205.5625 C-211.48663412 201.75912497 -208.31246834 198.09917348 -205 194.5 C-200.98470254 190.13313271 -197.20862042 185.63188173 -193.48046875 181.01953125 C-186.95770409 173.07922088 -180.16300315 165.35188634 -173.25 157.75 C-170.24239392 154.43560714 -167.37570304 151.04340917 -164.5625 147.5625 C-160.70174863 142.788597 -156.62562925 138.26611572 -152.46875 133.75 C-150.05621896 131.06262366 -147.7674379 128.31034556 -145.5 125.5 C-141.66280969 120.74404581 -137.60614899 116.24495199 -133.46875 111.75 C-130.27864141 108.19646131 -127.29758487 104.49555682 -124.3125 100.76953125 C-122.66499667 98.79642337 -121.01945285 96.92931016 -119.25 95.07421875 C-118.3425 94.12160156 -117.435 93.16898437 -116.5 92.1875 C-115.6646875 91.33542969 -114.829375 90.48335938 -113.96875 89.60546875 C-111.65644549 86.54533559 -110.89915357 84.84224881 -111 81 C-112.90032301 78.39251735 -112.90032301 78.39251735 -115.75 76.1875 C-116.25297607 75.75864502 -116.75595215 75.32979004 -117.27416992 74.88793945 C-118.83204751 73.5691 -120.41104094 72.28114501 -122 71 C-123.33224609 69.9171875 -123.33224609 69.9171875 -124.69140625 68.8125 C-126.46785182 67.37228183 -128.24657242 65.9348661 -130.02734375 64.5 C-134.2051761 60.98644849 -138.17668714 57.26673885 -142.1418457 53.51635742 C-145.32007359 50.51767491 -148.53881098 47.67691211 -152 45 C-151.25 40.25 -151.25 40.25 -149 38 C-146.80033875 37.24627686 -146.80033875 37.24627686 -144.0144043 36.52636719 C-142.4363652 36.11309174 -142.4363652 36.11309174 -140.82644653 35.69146729 C-139.67071136 35.39625183 -138.5149762 35.10103638 -137.32421875 34.796875 C-136.11659882 34.48248474 -134.90897888 34.16809448 -133.6647644 33.84417725 C-131.04605803 33.1633165 -128.42684973 32.48496099 -125.806427 31.81079102 C-121.66270535 30.74462771 -117.52144464 29.669131 -113.38061523 28.59179688 C-109.125826 27.48520716 -104.87091971 26.37908582 -100.6151886 25.27612305 C-88.03204282 22.01456284 -75.46132654 18.70707838 -62.89492798 15.38153076 C-59.58679946 14.50642796 -56.27820079 13.63312359 -52.96948242 12.76025391 C-43.7109018 10.31624697 -34.45568655 7.86188498 -25.21484375 5.3515625 C-23.78378299 4.96415502 -22.35271248 4.57678353 -20.92163086 4.18945312 C-18.41381072 3.51042763 -15.90875035 2.82327062 -13.40454102 2.13085938 C-12.34291748 1.84275391 -11.28129395 1.55464844 -10.1875 1.2578125 C-8.84751953 0.88873779 -8.84751953 0.88873779 -7.48046875 0.51220703 C-4.87597111 -0.02561148 -2.65027771 -0.23454283 0 0 Z " fill="#77BE52" transform="translate(1019,8)"/>
<path d="M0 0 C174.70532227 0 174.70532227 0 206.97265625 29.875 C221.07578736 44.65747269 225.63936474 62.90079668 225.47241211 82.78588867 C224.96200455 101.1396994 218.69781368 115.8962857 205.45556641 128.68994141 C191.14794389 141.56728163 171.59208712 146.18613784 153 148 C153 149.98 153 151.96 153 154 C153.78761719 154.09796875 154.57523438 154.1959375 155.38671875 154.296875 C172.36441594 156.62754112 189.96475433 161.86699163 201.13671875 175.6328125 C214.16827271 193.28846625 219.42931567 214.41587606 225.35699463 235.19262695 C226.22357994 238.21806671 227.10292846 241.23973179 227.98262024 244.2613821 C229.03528425 247.87978573 230.0803156 251.50037998 231.125 255.12109375 C231.42239578 256.14780087 231.42239578 256.14780087 231.72579956 257.19524956 C232.28239452 259.12169859 232.83275707 261.04994505 233.3828125 262.97827148 C233.69621582 264.07203598 234.00961914 265.16580048 234.33251953 266.29270935 C235 269 235 269 235 272 C213.22 272 191.44 272 169 272 C165.535 256.655 165.535 256.655 162 241 C155.58255158 208.93857621 155.58255158 208.93857621 135.2109375 184.81640625 C124.15080321 178.16570876 111.15454512 177.68028015 98.57421875 177.8046875 C97.58474243 177.80670166 96.59526611 177.80871582 95.57580566 177.81079102 C91.94632199 177.82110561 88.31690538 177.8490256 84.6875 177.875 C72.4671875 177.936875 72.4671875 177.936875 60 178 C59.67 209.02 59.34 240.04 59 272 C39.53 272 20.06 272 0 272 C0 182.24 0 92.48 0 0 Z " fill="#010101" transform="translate(5,277)"/>
<path d="M0 0 C19.47 0 38.94 0 59 0 C59.03738281 6.90292969 59.07476563 13.80585938 59.11328125 20.91796875 C59.14361549 25.33400767 59.1747989 29.75000891 59.20898438 34.16601562 C59.26297111 41.15012526 59.31409078 48.13416041 59.34643555 55.1184082 C59.37275936 60.75959715 59.41335848 66.40053071 59.46318626 72.04155922 C59.47966103 74.17609757 59.49129427 76.31067988 59.49761391 78.44527245 C59.53259785 89.19212724 59.85426717 99.76515638 61.32104492 110.4230957 C61.4336456 111.25862315 61.54624628 112.0941506 61.6622591 112.95499706 C63.43721006 124.52868553 68.10753048 135.65361479 76.82421875 143.6796875 C85.02244963 148.93892995 95.90168425 148.28944487 105.140625 146.3359375 C113.72653229 143.30716652 119.16009769 136.84990624 123.52734375 129.08203125 C134.29960666 106.53742797 136.04691381 80.78819396 136.31640625 56.17578125 C136.33702453 54.57724023 136.3580221 52.97870405 136.37937927 51.38017273 C136.43409746 47.20956395 136.4837244 43.03891018 136.53222656 38.8682251 C136.59173518 33.84442569 136.65768154 28.820707 136.72252655 23.79697418 C136.81990201 16.19803284 136.90919027 8.5990354 137 1 C156.14 1 175.28 1 195 1 C195.06800313 23.40267179 195.12314718 45.80525862 195.15543652 68.20800781 C195.17083468 78.61250533 195.19178746 89.01693365 195.22631836 99.42138672 C195.25643864 108.50129466 195.27562607 117.58115244 195.28226548 126.66110897 C195.28613986 131.45853331 195.29509359 136.25581426 195.31719017 141.05319214 C195.50474497 183.47382432 193.83061331 227.75242553 164 261 C163.41476562 261.65613281 162.82953125 262.31226563 162.2265625 262.98828125 C150.36018373 275.55104375 133.06854436 283.37721734 116.5625 287.625 C115.75490234 287.8415625 114.94730469 288.058125 114.11523438 288.28125 C103.68791725 291.0036116 93.46834544 291.24014472 82.75 291.25 C81.6143309 291.25151062 81.6143309 291.25151062 80.45571899 291.25305176 C64.76640125 291.23894508 49.91497076 290.05323139 34.95703125 284.96484375 C31.89110273 283.96446813 28.83565194 283.25642639 25.6875 282.5625 C21.09261944 281.457555 17.73920666 279.89286169 13.88671875 277.1953125 C11.83261239 275.89395319 9.86312841 275.14866265 7.5625 274.375 C5.7990625 273.694375 5.7990625 273.694375 4 273 C3.505 271.515 3.505 271.515 3 270 C2.443125 269.87625 1.88625 269.7525 1.3125 269.625 C-2.40404257 268.62052904 -4.39866512 266.78282336 -7 264 C-6.73330912 257.98227267 -4.69058375 252.38564087 -2.83984375 246.69140625 C-2.53051407 245.72468491 -2.22118439 244.75796356 -1.90248108 243.76194763 C-0.91940163 240.69375123 0.07142429 237.62812167 1.0625 234.5625 C1.73293596 232.4747744 2.40286336 230.3868854 3.07226562 228.29882812 C4.70896085 223.19731247 6.35201266 218.09787833 8 213 C11.4559627 213 11.8946503 213.44381129 14.43359375 215.58984375 C15.4071582 216.39518555 15.4071582 216.39518555 16.40039062 217.21679688 C17.07263672 217.78462891 17.74488281 218.35246094 18.4375 218.9375 C19.76429172 220.05702049 21.09616534 221.17055215 22.43359375 222.27734375 C23.02197021 222.77484131 23.61034668 223.27233887 24.21655273 223.78491211 C26.14245656 225.09705767 27.72337512 225.57745292 30 226 C30 226.66 30 227.32 30 228 C30.86238281 228.12632812 31.72476562 228.25265625 32.61328125 228.3828125 C35.92586169 228.98648921 38.9832847 229.84805895 42.1875 230.875 C46.40386201 232.19712036 50.61968762 233.49601253 54.875 234.6875 C55.69742187 234.91824219 56.51984375 235.14898438 57.3671875 235.38671875 C77.02541247 239.96586018 99.49505242 238.39858779 117.32421875 228.67578125 C132.15412296 219.38814781 138.869117 204.41216014 143 188 C144.29043658 182.04606901 145.22020166 176.04003406 146 170 C146.16588623 168.78489746 146.33177246 167.56979492 146.50268555 166.31787109 C147.0605729 161.82811509 147.29961482 157.34601388 147.5 152.828125 C147.58329666 151.09505032 147.66663109 149.36197746 147.75 147.62890625 C147.87621423 144.92762598 148.00108761 142.22628917 148.125 139.52490234 C148.24664805 136.89663916 148.37311513 134.26863977 148.5 131.640625 C148.53544922 130.83328918 148.57089844 130.02595337 148.60742188 129.19415283 C148.78132221 125.6218548 149.1283719 122.48651239 150 119 C147.03 119 144.06 119 141 119 C140.92523437 119.83917969 140.85046875 120.67835938 140.7734375 121.54296875 C138.09702504 146.024271 130.05560671 170.44938131 110.29711914 186.37231445 C106.61439609 189.11721066 103.0131255 191.06606379 98.6875 192.6875 C97.66011719 193.08324219 96.63273437 193.47898437 95.57421875 193.88671875 C78.79482723 199.1130866 57.36069662 199.86156728 41.19628906 192.13818359 C37.24395269 190.05589788 33.61185779 187.61909578 30 185 C28.87851563 184.21689453 28.87851563 184.21689453 27.734375 183.41796875 C14.83692026 173.38943603 8.38252452 155.7831466 4.25 140.5625 C4.05116211 139.83651611 3.85232422 139.11053223 3.64746094 138.36254883 C-0.50183326 122.08386416 -0.26675002 105.84390499 -0.1953125 89.16015625 C-0.19157573 86.58084727 -0.1887319 84.00153686 -0.18673706 81.42222595 C-0.17992476 75.36655612 -0.16422078 69.3109714 -0.14403808 63.25533336 C-0.1193191 55.67088756 -0.1085047 48.08642928 -0.09765625 40.50195312 C-0.07828525 27.00124483 -0.03820351 13.50069726 0 0 Z " fill="#020202" transform="translate(1187,332)"/>
<path d="M0 0 C5.36895009 4.38169369 10.11382078 8.92137504 14.4765625 14.31640625 C15.1984375 15.03828125 15.9203125 15.76015625 16.6640625 16.50390625 C18.4765625 18.31640625 18.4765625 18.31640625 20.4765625 21.31640625 C20.4765625 22.30640625 20.4765625 23.29640625 20.4765625 24.31640625 C21.1365625 24.31640625 21.7965625 24.31640625 22.4765625 24.31640625 C25.00793781 27.92783503 26.51629859 31.75932866 28.0390625 35.87890625 C29.61471811 40.20577636 29.61471811 40.20577636 31.5625 44.3671875 C32.73029685 46.85748934 33.10422291 49.2300535 33.5390625 51.94140625 C34.114596 55.75611346 34.114596 55.75611346 35.4765625 59.31640625 C35.79088773 62.42909916 35.98746124 65.54258203 36.1953125 68.6640625 C36.18708248 71.2364603 36.18708248 71.2364603 37.4765625 72.31640625 C37.4765625 83.86640625 37.4765625 95.41640625 37.4765625 107.31640625 C-12.0234375 107.31640625 -61.5234375 107.31640625 -112.5234375 107.31640625 C-110.24380206 124.41367208 -107.18900819 142.34637859 -93.5234375 154.31640625 C-79.29188613 164.19501104 -63.35442518 167.71521052 -46.23828125 164.6328125 C-38.4143123 162.97409461 -31.68483939 160.57871946 -25.5234375 155.31640625 C-24.68425781 154.63964844 -24.68425781 154.63964844 -23.828125 153.94921875 C-17.5162389 148.33512911 -14.68012125 139.95890375 -11.5234375 132.31640625 C-4.47060513 131.85036006 2.06656964 133.58126004 8.9140625 135.12890625 C11.41762485 135.6812486 13.92153037 136.23203782 16.42578125 136.78125 C18.2363501 137.17932861 18.2363501 137.17932861 20.08349609 137.58544922 C26.52161273 138.97239131 32.9919462 140.16850833 39.4765625 141.31640625 C41.59327084 149.08714088 38.0944662 156.64096221 34.26171875 163.37109375 C21.84428838 184.06844222 6.66599855 197.59120606 -16.5859375 204.69140625 C-17.36372559 204.93004395 -18.14151367 205.16868164 -18.94287109 205.41455078 C-31.74763621 209.06965711 -44.6758947 209.72766647 -57.8984375 209.69140625 C-59.07448547 209.69009201 -59.07448547 209.69009201 -60.27429199 209.68875122 C-82.33708406 209.60782333 -102.45203747 207.08849194 -121.5234375 195.31640625 C-122.36261719 194.81882812 -123.20179688 194.32125 -124.06640625 193.80859375 C-147.5046517 179.47560466 -160.50900471 157.34197469 -167.07128906 131.12792969 C-171.73347391 110.59763259 -171.30257775 87.77195051 -166.5234375 67.31640625 C-166.245 66.0428125 -165.9665625 64.76921875 -165.6796875 63.45703125 C-160.97592113 43.91207101 -151.73866129 25.57800923 -137.5234375 11.31640625 C-136.25886719 10.02863281 -136.25886719 10.02863281 -134.96875 8.71484375 C-101.67434817 -23.94132674 -37.2084578 -29.10678097 0 0 Z " fill="#010101" transform="translate(436.5234375,344.68359375)"/>
<path d="M0 0 C13.37818052 10.51022252 25.59459663 27.675711 27.98876953 44.9987793 C28.06853027 45.78551025 28.14829102 46.57224121 28.23046875 47.3828125 C28.31312988 48.18033936 28.39579102 48.97786621 28.48095703 49.79956055 C28.56966064 50.70121948 28.56966064 50.70121948 28.66015625 51.62109375 C21.29238741 53.90366058 13.92328444 56.18187896 6.55322266 58.45703125 C4.04444695 59.23206316 1.53598219 60.00810232 -0.97216797 60.78515625 C-4.57048209 61.89976639 -8.16988681 63.01078856 -11.76953125 64.12109375 C-12.8966452 64.47107422 -14.02375916 64.82105469 -15.18502808 65.18164062 C-16.22595612 65.50197266 -17.26688416 65.82230469 -18.33935547 66.15234375 C-19.71835526 66.57870117 -19.71835526 66.57870117 -21.12521362 67.01367188 C-23.33984375 67.62109375 -23.33984375 67.62109375 -25.33984375 67.62109375 C-25.68595703 66.17089844 -25.68595703 66.17089844 -26.0390625 64.69140625 C-29.44816331 50.89520141 -33.63268169 39.89753399 -46.2890625 32.203125 C-57.02386692 26.63642104 -69.96064077 25.75433027 -81.52734375 29.12109375 C-92.61674325 33.34985143 -101.24004267 40.60153136 -106.1796875 51.46875 C-111.74410427 64.57205401 -113.69519912 76.65969293 -113.65551758 90.87744141 C-113.65237756 93.22086041 -113.67581403 95.56298798 -113.70117188 97.90625 C-113.78116228 116.81794799 -110.83929348 136.63812054 -97.203125 150.84765625 C-92.88937306 154.87577776 -89.01486236 157.76203593 -83.33984375 159.62109375 C-82.61023438 159.89695312 -81.880625 160.1728125 -81.12890625 160.45703125 C-68.21258724 164.78896593 -52.73766394 164.17933437 -40.33984375 158.62109375 C-29.5371614 153.17004698 -23.51516256 143.73579738 -19.21484375 132.74609375 C-18.00312988 128.41854422 -17.16028013 124.03748532 -16.33984375 119.62109375 C-11.06279677 120.22721387 -5.92864084 121.04348899 -0.7265625 122.14453125 C-0.03150101 122.2913736 0.66356049 122.43821594 1.37968445 122.58950806 C2.83965162 122.89885913 4.29926948 123.20986307 5.75854492 123.52246094 C7.95586616 123.99250209 10.15456832 124.45560202 12.35351562 124.91796875 C20.19232033 126.57924712 27.96187252 128.38380909 35.66015625 130.62109375 C33.41106078 152.40710811 25.37905737 172.00248311 8.66015625 186.62109375 C-17.60760088 207.22456455 -52.71840596 210.54275392 -84.92578125 207.125 C-104.80474785 204.47672949 -122.48799528 198.10596045 -138.33984375 185.62109375 C-139.03722656 185.09 -139.73460937 184.55890625 -140.453125 184.01171875 C-148.05584137 177.85641331 -154.69075439 169.19708383 -159.33984375 160.62109375 C-159.33984375 159.96109375 -159.33984375 159.30109375 -159.33984375 158.62109375 C-159.99984375 158.62109375 -160.65984375 158.62109375 -161.33984375 158.62109375 C-170.12325808 138.05757079 -174.58800064 118.78410595 -174.65234375 96.43359375 C-174.65611023 95.70865723 -174.65987671 94.9837207 -174.66375732 94.23681641 C-174.71851348 73.41299123 -171.83934779 49.48365669 -160.33984375 31.62109375 C-159.63601563 30.41066406 -159.63601563 30.41066406 -158.91796875 29.17578125 C-154.28092049 21.4252863 -148.64081936 15.01860242 -142.33984375 8.62109375 C-141.55867187 7.81542969 -140.7775 7.00976562 -139.97265625 6.1796875 C-104.38969368 -28.2650995 -38.85406956 -28.26277234 0 0 Z " fill="#010101" transform="translate(681.33984375,346.37890625)"/>
<path d="M0 0 C2 2 2 2 2.21838379 4.01010132 C2.20110229 4.81936066 2.1838208 5.62862 2.16601562 6.46240234 C2.14772705 7.36142273 2.12943848 8.26044312 2.1105957 9.18670654 C1.93453616 13.66524548 1.66581254 18.13128893 1.34375 22.6015625 C1.27716187 23.564039 1.21057373 24.5265155 1.14196777 25.51815796 C0.93120022 28.55400706 0.71568431 31.58949667 0.5 34.625 C0.35515296 36.69919672 0.21061881 38.77341532 0.06640625 40.84765625 C-0.28544909 45.89869737 -0.64155959 50.94942208 -1 56 C-3.4872702 54.76553675 -5.94520263 53.49806481 -8.3984375 52.1953125 C-23.58072181 44.23199911 -40.91848703 37.70287559 -58.25 42.0625 C-64.93329216 44.36559907 -69.42008534 48.33389402 -73 54.375 C-75.37535468 62.30837412 -75.50849935 73.40410509 -72.4375 81.1875 C-68.44676866 88.36527373 -62.66837776 91.51460532 -55.10873413 94.16394043 C-49.79872235 95.59200921 -44.58418324 95.60339697 -39.11328125 95.609375 C-37.93025925 95.62591125 -36.74723724 95.64244751 -35.52836609 95.65948486 C-31.7896896 95.70765225 -28.05141894 95.72926707 -24.3125 95.75 C-21.76104763 95.77818568 -19.20961391 95.8081167 -16.65820312 95.83984375 C-10.43887501 95.91340284 -4.21965955 95.96522781 2 96 C2.02527002 102.53278786 2.04283292 109.06556321 2.05493164 115.59838867 C2.05997317 117.82267732 2.06680623 120.04696263 2.07543945 122.27124023 C2.08751298 125.46078309 2.09322996 128.65028229 2.09765625 131.83984375 C2.10281754 132.84087631 2.10797882 133.84190887 2.11329651 134.87327576 C2.11337204 135.79415482 2.11344757 136.71503387 2.11352539 137.66381836 C2.115746 138.47878281 2.11796661 139.29374725 2.12025452 140.13340759 C2 142 2 142 1 143 C-17.15 143 -35.3 143 -54 143 C-54 188.54 -54 234.08 -54 281 C-73.14 281 -92.28 281 -112 281 C-112 235.13 -112 189.26 -112 142 C-123.22 142 -134.44 142 -146 142 C-146 127.81 -146 113.62 -146 99 C-127.61164825 99 -127.61164825 99 -119.25 99.4375 C-118.34040527 99.48189209 -117.43081055 99.52628418 -116.49365234 99.57202148 C-113.66223928 99.71102701 -110.83113153 99.85538615 -108 100 C-106.04949697 100.09671379 -104.09897617 100.19307014 -102.1484375 100.2890625 C-97.43207742 100.5219338 -92.71598195 100.75959745 -88 101 C-88 98.69 -88 96.38 -88 94 C-88.73863281 93.85304688 -89.47726562 93.70609375 -90.23828125 93.5546875 C-105.56886375 90.16520674 -115.44204055 83.01847164 -124 70 C-131.73708962 57.05415718 -131.86791204 40.57271133 -128.5 26.0625 C-124.31012582 12.30207111 -114.00610871 2.38959018 -101.7421875 -4.62109375 C-70.96027088 -20.09974983 -29.61794299 -17.47356152 0 0 Z " fill="#020202" transform="translate(1154,268)"/>
<path d="M0 0 C11.22 0 22.44 0 34 0 C34 16.17 34 32.34 34 49 C51.82 49 69.64 49 88 49 C88 64.84 88 80.68 88 97 C70.18 97 52.36 97 34 97 C34.06177748 114.35172277 34.06177748 114.35172277 34.16015625 131.703125 C34.20842292 138.78483292 34.25249345 145.8663858 34.27099609 152.94824219 C34.28619102 158.66076054 34.32068753 164.37287208 34.36830902 170.08520889 C34.38309348 172.25953756 34.39103932 174.43392431 34.39188385 176.60830307 C34.39426405 179.66492329 34.4214291 182.7204288 34.45410156 185.77685547 C34.4490712 186.66662582 34.44404083 187.55639618 34.43885803 188.47312927 C34.55945256 195.8126354 36.1249264 203.04926657 41.375 208.4375 C52.60570233 215.12244186 64.98714116 215.79246336 77.625 212.625 C79.42253425 212.10313522 81.21427201 211.56093473 83 211 C86.465 210.01 86.465 210.01 90 209 C90 227.15 90 245.3 90 264 C88.35 264 86.7 264 85 264 C85 264.66 85 265.32 85 266 C65.66685628 269.34855104 46.44729368 272.33069985 27 268 C25.52660156 267.70802734 25.52660156 267.70802734 24.0234375 267.41015625 C9.76235832 264.29630304 -2.11029344 257.4243546 -10.23632812 245.12939453 C-15.59875001 236.12624204 -19.15631328 226.31303619 -21 216 C-21.16753784 215.06837036 -21.33507568 214.13674072 -21.50769043 213.17687988 C-23.41747501 200.92070411 -23.25348952 188.7256108 -23.1953125 176.34765625 C-23.19157483 173.99254986 -23.18873143 171.63744189 -23.18673706 169.28233337 C-23.17915992 163.13233016 -23.15956332 156.98242385 -23.1373291 150.8324585 C-23.11674205 144.53740753 -23.10770804 138.24234067 -23.09765625 131.94726562 C-23.07631099 119.63146134 -23.04117816 107.31575395 -23 95 C-33.23 95 -43.46 95 -54 95 C-54 78.125 -54 78.125 -53.5625 71.97265625 C-53.47226562 70.66748047 -53.38203125 69.36230469 -53.2890625 68.01757812 C-53.19367187 66.71240234 -53.09828125 65.40722656 -53 64.0625 C-52.90316884 62.68558034 -52.80681294 61.30862717 -52.7109375 59.93164062 C-52.47859332 56.62073608 -52.24156258 53.31024249 -52 50 C-51.4423999 49.98541748 -50.8847998 49.97083496 -50.31030273 49.95581055 C-28.93390899 50.13259823 -28.93390899 50.13259823 -10 42 C-6.87609628 37.24441442 -6.00745102 32.13182972 -5 26.625 C-4.84789062 25.83222656 -4.69578125 25.03945313 -4.5390625 24.22265625 C-4.01612161 21.4836462 -3.50869054 18.74169239 -3 16 C-1.515 8.08 -1.515 8.08 0 0 Z " fill="#010101" transform="translate(783,284)"/>
<path d="M0 0 C19.47 0 38.94 0 59 0 C59 71.61 59 143.22 59 217 C39.53 217 20.06 217 0 217 C0 145.39 0 73.78 0 0 Z " fill="#020202" transform="translate(913,332)"/>
<path d="M0 0 C10.56 -0.103125 21.12 -0.20625 32 -0.3125 C35.3 -0.35802002 38.6 -0.40354004 42 -0.45043945 C44.66665639 -0.46506622 47.33332409 -0.47780167 50 -0.48828125 C50.66805664 -0.50134811 51.33611328 -0.51441498 52.02441406 -0.52787781 C67.19727205 -0.80908718 82.69562568 2.57095009 94.2421875 13.03125 C103.76007314 22.93264019 105.50258722 34.14377718 105.26953125 47.375 C104.82359574 58.16532141 100.60880169 66.41917185 93 74 C90.48389624 76.08626936 87.9361929 77.5756122 85 79 C84.15050781 79.42925781 83.30101562 79.85851562 82.42578125 80.30078125 C64.82372442 88.44143236 45.86886965 87.37424119 26.9375 87.1875 C18.048125 87.125625 9.15875 87.06375 0 87 C0 58.29 0 29.58 0 0 Z " fill="#FCFCFC" transform="translate(64,323)"/>
<path d="M0 0 C39.27 0 78.54 0 119 0 C119 2 119 2 116.85546875 4.2421875 C115.91316406 5.15226562 114.97085938 6.06234375 114 7 C112.07766671 9.0174193 110.19522884 11.07064826 108.3125 13.125 C107.82716797 13.64964844 107.34183594 14.17429687 106.84179688 14.71484375 C103.31095289 18.56224617 100.96011642 21.29247958 100.25 26.5 C98.1760003 37.44433687 91.81195995 45.95361574 82.98046875 52.49609375 C70.72703423 60.15733203 53.61510632 60.91591105 39.75 57.875 C25.65970045 53.77809225 15.4045351 46.63648206 8 34 C7.63132812 33.40960938 7.26265625 32.81921875 6.8828125 32.2109375 C4.36549395 27.78123742 3.03854526 23.02866226 1.75 18.125 C1.57452637 17.47716553 1.39905273 16.82933105 1.21826172 16.16186523 C-0.19127863 10.43338514 0 6.26123427 0 0 Z " fill="#FBFBFB" transform="translate(324,452)"/>
<path d="M0 0 C10.53999383 6.93686495 17.08993802 16.81376269 20.125 29.125 C20.94505622 33.25117764 20.6875 36.87649842 20.6875 41.25 C-10.3325 41.25 -41.3525 41.25 -73.3125 41.25 C-71.53291851 25.23376663 -64.859956 13.43219406 -52.70703125 3.0390625 C-37.58920122 -8.25615145 -16.38628388 -9.21574462 0 0 Z " fill="#FBFBFB" transform="translate(399.3125,378.75)"/>
<path d="M0 0 C1.31726074 0.00845947 1.31726074 0.00845947 2.66113281 0.01708984 C14.49244725 0.23715665 23.24564587 2.37980166 31.77734375 10.82421875 C36.69980802 16.26033147 37.52903852 21.66902522 37.5 28.8125 C37.50773438 30.71515625 37.50773438 30.71515625 37.515625 32.65625 C37.02475419 39.41294228 35.22664635 42.79879749 30.25 47.3125 C29.5075 48.158125 28.765 49.00375 28 49.875 C18.14126544 58.61342382 4.94863878 57.82977882 -7.44091797 57.453125 C-14.77027646 57.00676102 -20.63486761 54.16769216 -26.75 50.3125 C-26.75 49.6525 -26.75 48.9925 -26.75 48.3125 C-27.74 47.9825 -28.73 47.6525 -29.75 47.3125 C-29.75 46.3225 -29.75 45.3325 -29.75 44.3125 C-30.41 44.3125 -31.07 44.3125 -31.75 44.3125 C-34.41980307 38.97289386 -35.0757538 34.1869028 -35.125 28.25 C-35.13853516 27.57775391 -35.15207031 26.90550781 -35.16601562 26.21289062 C-35.1009632 18.81859808 -32.39754531 13.29766718 -27.48046875 7.8828125 C-19.96271329 1.06083125 -9.72975806 -0.06536306 0 0 Z " fill="#030303" transform="translate(941.75,243.6875)"/>
<path d="M0 0 C0.33 0 0.66 0 1 0 C0.36322646 13.23329005 -1.05726744 26.34152306 -2.5625 39.5 C-2.79919051 41.59501117 -3.03552103 43.69006305 -3.27148438 45.78515625 C-3.8435162 50.85724863 -4.4203851 55.92876882 -5 61 C-5.33 61 -5.66 61 -6 61 C-6.02903577 57.89585298 -6.0468107 54.79174091 -6.0625 51.6875 C-6.07087891 50.80642578 -6.07925781 49.92535156 -6.08789062 49.01757812 C-6.09111328 48.17001953 -6.09433594 47.32246094 -6.09765625 46.44921875 C-6.10289307 45.66893311 -6.10812988 44.88864746 -6.11352539 44.0847168 C-6 42 -6 42 -5 39 C-4.74232692 35.75761373 -4.55753192 32.52137679 -4.39453125 29.2734375 C-4.10159485 24.10159485 -4.10159485 24.10159485 -3 23 C-2.76168252 19.26257672 -2.60420612 15.53170039 -2.48242188 11.7890625 C-2.29536725 7.45504214 -1.98485175 3.95363182 0 0 Z " fill="#99CA7F" transform="translate(1013,72)"/>
<path d="M0 0 C-11.7647488 7.83584948 -27.50519464 6.35000936 -41 6 C-41 9.3 -41 12.6 -41 16 C-41.33 16 -41.66 16 -42 16 C-42.07347656 15.07767578 -42.07347656 15.07767578 -42.1484375 14.13671875 C-42.22320313 13.32847656 -42.29796875 12.52023437 -42.375 11.6875 C-42.44460938 10.88699219 -42.51421875 10.08648437 -42.5859375 9.26171875 C-42.89564426 6.72775559 -42.89564426 6.72775559 -45 4 C-44.29504395 3.97494385 -43.59008789 3.9498877 -42.86376953 3.92407227 C-39.61738553 3.80681958 -36.37120183 3.6846885 -33.125 3.5625 C-32.01640625 3.52318359 -30.9078125 3.48386719 -29.765625 3.44335938 C-17.62266362 3.41677604 -17.62266362 3.41677604 -6.0625 0.375 C-3 -1 -3 -1 0 0 Z " fill="#64904C" transform="translate(772,328)"/>
<path d="M0 0 C0.33 1.32 0.66 2.64 1 4 C0.01 4.33 -0.98 4.66 -2 5 C-2.71402526 6.30858326 -3.3757707 7.6462792 -4 9 C-4.94057563 10.21829434 -5.92123201 11.40659214 -6.9375 12.5625 C-7.44152344 13.14128906 -7.94554687 13.72007812 -8.46484375 14.31640625 C-9.45086074 15.3977633 -10.45995635 16.45875542 -11.49609375 17.4921875 C-13.12084514 19.12115902 -14.62056789 20.82186478 -16.125 22.5625 C-20.35703021 27.42888163 -24.67610511 32.21528184 -29 37 C-29.66 36.67 -30.32 36.34 -31 36 C-30.45472656 35.40574219 -29.90945313 34.81148438 -29.34765625 34.19921875 C-24.4761562 28.84473237 -19.82110854 23.36988202 -15.26953125 17.7421875 C-12.30194635 14.15656857 -9.19014815 10.71713769 -6.04296875 7.2890625 C-3.93468885 4.92682154 -1.95661814 2.4886424 0 0 Z " fill="#8BC16F" transform="translate(791,229)"/>
<path d="M0 0 C0.33 0.66 0.66 1.32 1 2 C-0.93956148 6.74115028 -3.54933233 10.28389636 -7 14 C-7.66 14 -8.32 14 -9 14 C-9.66 15.32 -10.32 16.64 -11 18 C-11.66 18 -12.32 18 -13 18 C-13.66 19.32 -14.32 20.64 -15 22 C-15.66 22 -16.32 22 -17 22 C-17.28875 22.5775 -17.5775 23.155 -17.875 23.75 C-18.91666667 25.83333333 -19.95833333 27.91666667 -21 30 C-21.99 30 -22.98 30 -24 30 C-24.33 30.99 -24.66 31.98 -25 33 C-25.66 32.67 -26.32 32.34 -27 32 C-26.26136719 31.14019531 -25.52273438 30.28039062 -24.76171875 29.39453125 C-19.49172898 23.255833 -14.23021513 17.11014494 -9 10.9375 C-8.55615967 10.41454346 -8.11231934 9.89158691 -7.6550293 9.3527832 C-5.05126006 6.2752402 -2.50410142 3.15910944 0 0 Z " fill="#8DC26E" transform="translate(845,166)"/>
<path d="M0 0 C-0.66 0 -1.32 0 -2 0 C-2 0.66 -2 1.32 -2 2 C-2.99 2.103125 -3.98 2.20625 -5 2.3125 C-9.3445524 2.95088321 -13.00917391 4.14220165 -17 6 C-17.77716639 8.11840515 -18 9.7492284 -18 12 C-17.01 12.33 -16.02 12.66 -15 13 C-15.33 13.66 -15.66 14.32 -16 15 C-17.98 13.35 -19.96 11.7 -22 10 C-21.25 5.25 -21.25 5.25 -19 3 C-16.53985136 2.18475168 -14.12661467 1.46870006 -11.625 0.8125 C-10.95210937 0.62236328 -10.27921875 0.43222656 -9.5859375 0.23632812 C-6.09905932 -0.69373485 -3.42363738 -1.37823351 0 0 Z " fill="#91C374" transform="translate(889,43)"/>
<path d="M0 0 C0.33 0.66 0.66 1.32 1 2 C0.67 2.99 0.34 3.98 0 5 C-0.66 5 -1.32 5 -2 5 C-2.061875 5.5775 -2.12375 6.155 -2.1875 6.75 C-3.32027301 9.88690987 -5.34197595 11.09167504 -8 13 C-9.32 12.34 -10.64 11.68 -12 11 C-12 8.36 -12 5.72 -12 3 C-11.67 3 -11.34 3 -11 3 C-10.34 5.31 -9.68 7.62 -9 10 C-6.03 6.7 -3.06 3.4 0 0 Z " fill="#88B371" transform="translate(484,405)"/>
<path d="M0 0 C0.33 0 0.66 0 1 0 C1.12375 0.804375 1.2475 1.60875 1.375 2.4375 C1.58125 3.283125 1.7875 4.12875 2 5 C2.66 5.33 3.32 5.66 4 6 C1.644847 11.56672528 -2.70113557 15.86035278 -7 20 C-5.9749792 16.76724211 -4.85745879 13.67334305 -3.5 10.5625 C-2.01944031 7.04617074 -0.9760197 3.67884347 0 0 Z " fill="#84B767" transform="translate(476,491)"/>
<path d="M0 0 C1.87890625 0.26171875 1.87890625 0.26171875 4.87890625 1.51171875 C5.20890625 2.17171875 5.53890625 2.83171875 5.87890625 3.51171875 C4.64140625 3.26421875 4.64140625 3.26421875 3.37890625 3.01171875 C-2.03173301 3.78466722 -4.62210709 7.53317554 -8.12109375 11.51171875 C-9.11109375 11.18171875 -10.10109375 10.85171875 -11.12109375 10.51171875 C-3.65803303 0.88250889 -3.65803303 0.88250889 0 0 Z " fill="#E3F6D8" transform="translate(954.12109375,130.48828125)"/>
<path d="M0 0 C0.33 0.66 0.66 1.32 1 2 C-5.15034169 11.59453303 -5.15034169 11.59453303 -9 15 C-9.99 14.67 -10.98 14.34 -12 14 C-11.30132812 13.24074219 -10.60265625 12.48148437 -9.8828125 11.69921875 C-8.96343578 10.69540947 -8.04417079 9.69149785 -7.125 8.6875 C-6.66480469 8.18798828 -6.20460938 7.68847656 -5.73046875 7.17382812 C-3.61393392 4.85790957 -1.74473617 2.61710426 0 0 Z " fill="#8DC371" transform="translate(506,379)"/>
<path d="M0 0 C0.33 0.99 0.66 1.98 1 3 C-0.328125 5.0078125 -0.328125 5.0078125 -2.25 7.125 C-2.87390625 7.82882813 -3.4978125 8.53265625 -4.140625 9.2578125 C-6 11 -6 11 -9 12 C-9 12.66 -9 13.32 -9 14 C-9.66 13.67 -10.32 13.34 -11 13 C-9.54300902 11.20724155 -8.08436345 9.41582771 -6.625 7.625 C-5.40683594 6.12839844 -5.40683594 6.12839844 -4.1640625 4.6015625 C-2 2 -2 2 0 0 Z " fill="#EBF9E2" transform="translate(863,234)"/>
<path d="M0 0 C0.33 0.99 0.66 1.98 1 3 C0.01 3.33 -0.98 3.66 -2 4 C-2.2475 4.70125 -2.495 5.4025 -2.75 6.125 C-4.56776306 10.30585503 -7.69446635 12.93310113 -11 16 C-11.66 15.67 -12.32 15.34 -13 15 C-12.39671875 14.33613281 -11.7934375 13.67226563 -11.171875 12.98828125 C-10.37265625 12.10527344 -9.5734375 11.22226562 -8.75 10.3125 C-7.96109375 9.44238281 -7.1721875 8.57226562 -6.359375 7.67578125 C-4.15500436 5.17579137 -2.05866059 2.62054272 0 0 Z " fill="#E8F9DE" transform="translate(663,286)"/>
<path d="M0 0 C0.33 0.66 0.66 1.32 1 2 C0.0625 4.625 0.0625 4.625 -1 7 C0.32 7.33 1.64 7.66 3 8 C3 8.33 3 8.66 3 9 C0.36 9.33 -2.28 9.66 -5 10 C-4.49701212 5.59885603 -2.91227269 3.28804981 0 0 Z " fill="#8BB771" transform="translate(429,468)"/>
<path d="M0 0 C0.66 0.33 1.32 0.66 2 1 C-2.95 5.95 -7.9 10.9 -13 16 C-13.66 15.67 -14.32 15.34 -15 15 C-10 10 -5 5 0 0 Z " fill="#232323" transform="translate(307,348)"/>
<path d="M0 0 C0.33 1.32 0.66 2.64 1 4 C-0.21484375 5.921875 -0.21484375 5.921875 -1.9375 7.75 C-2.50339844 8.36359375 -3.06929687 8.9771875 -3.65234375 9.609375 C-4.31943359 10.29773438 -4.31943359 10.29773438 -5 11 C-5.99 10.67 -6.98 10.34 -8 10 C-5.36 6.7 -2.72 3.4 0 0 Z " fill="#8FC572" transform="translate(877,129)"/>
<path d="M0 0 C0.33 1.32 0.66 2.64 1 4 C-0.43359375 5.921875 -0.43359375 5.921875 -2.4375 7.75 C-3.09621094 8.36359375 -3.75492188 8.9771875 -4.43359375 9.609375 C-4.95050781 10.06828125 -5.46742188 10.5271875 -6 11 C-6.99 10.67 -7.98 10.34 -9 10 C-6.03 6.7 -3.06 3.4 0 0 Z " fill="#91C572" transform="translate(900,103)"/>
<path d="M0 0 C0.33 0 0.66 0 1 0 C0.8863485 2.62594784 0.75960946 5.25011547 0.625 7.875 C0.5940625 8.62136719 0.563125 9.36773437 0.53125 10.13671875 C0.2265625 15.7734375 0.2265625 15.7734375 -2 18 C-2.054348 15.9377952 -2.09294961 13.87517184 -2.125 11.8125 C-2.14820313 10.66394531 -2.17140625 9.51539062 -2.1953125 8.33203125 C-2.00484152 5.08259628 -1.39360127 2.91339479 0 0 Z " fill="#92C575" transform="translate(1013,72)"/>
<path d="M0 0 C0.33 0.66 0.66 1.32 1 2 C-3.14285714 8.42857143 -3.14285714 8.42857143 -6 11 C-6.99 10.67 -7.98 10.34 -9 10 C-6.03 6.7 -3.06 3.4 0 0 Z " fill="#90C472" transform="translate(516,368)"/>
<path d="M0 0 C0.33 0.99 0.66 1.98 1 3 C-0.43359375 5.04296875 -0.43359375 5.04296875 -2.4375 7.1875 C-3.09621094 7.90292969 -3.75492188 8.61835938 -4.43359375 9.35546875 C-5.20896484 10.16951172 -5.20896484 10.16951172 -6 11 C-6.99 10.67 -7.98 10.34 -9 10 C-6.03 6.7 -3.06 3.4 0 0 Z " fill="#8BC16C" transform="translate(606,264)"/>
<path d="M0 0 C0.33 0.66 0.66 1.32 1 2 C-0.20992667 5.05665685 -1.15729587 7.36070722 -3.8125 9.375 C-6.6013613 10.17181751 -9.11552791 10.13111237 -12 10 C-11.67 9.34 -11.34 8.68 -11 8 C-10.278125 7.938125 -9.55625 7.87625 -8.8125 7.8125 C-4.55268358 6.58188637 -2.61516675 3.44195486 0 0 Z " fill="#87BD6B" transform="translate(759,266)"/>
<path d="M0 0 C0.33 1.32 0.66 2.64 1 4 C-0.21484375 5.703125 -0.21484375 5.703125 -1.9375 7.25 C-2.50339844 7.77078125 -3.06929687 8.2915625 -3.65234375 8.828125 C-4.09707031 9.21484375 -4.54179688 9.6015625 -5 10 C-5.99 9.67 -6.98 9.34 -8 9 C-5.36 6.03 -2.72 3.06 0 0 Z " fill="#E6F7DA" transform="translate(876,219)"/>
<path d="M0 0 C0.66 0 1.32 0 2 0 C2.43535798 4.35357983 2.38921814 7.04099736 -0.375 10.4375 C-3 13 -3 13 -5 13 C-5 13.66 -5 14.32 -5 15 C-5.66 14.67 -6.32 14.34 -7 14 C-6.4946875 13.40832031 -5.989375 12.81664063 -5.46875 12.20703125 C-4.49421875 11.02173828 -4.49421875 11.02173828 -3.5 9.8125 C-2.8503125 9.03519531 -2.200625 8.25789063 -1.53125 7.45703125 C0.1952605 4.68668659 0.31838702 3.20092666 0 0 Z " fill="#92C676" transform="translate(908,88)"/>
<path d="M0 0 C0.33 1.32 0.66 2.64 1 4 C-0.21484375 5.703125 -0.21484375 5.703125 -1.9375 7.25 C-2.50339844 7.77078125 -3.06929688 8.2915625 -3.65234375 8.828125 C-4.09707031 9.21484375 -4.54179687 9.6015625 -5 10 C-5.99 9.67 -6.98 9.34 -8 9 C-5.36 6.03 -2.72 3.06 0 0 Z " fill="#DEF3D2" transform="translate(495,480)"/>
<path d="M0 0 C6.52403283 1.35404455 6.52403283 1.35404455 8.75 4.375 C9.36875 5.674375 9.36875 5.674375 10 7 C10.98244845 8.34631825 11.97676564 9.68441297 13 11 C9.54691313 9.48729451 7.04375621 7.45279358 4.25 4.9375 C3.45078125 4.22464844 2.6515625 3.51179688 1.828125 2.77734375 C1.22484375 2.19082031 0.6215625 1.60429687 0 1 C0 0.67 0 0.34 0 0 Z " fill="#8EC072" transform="translate(714,321)"/>
<path d="M0 0 C0 0.66 0 1.32 0 2 C-5.24385089 3.7479503 -9.47322267 4.19392201 -15 4 C-12.3851183 2.25674553 -10.9946567 1.58412043 -8.0625 0.875 C-7.39347656 0.70742188 -6.72445312 0.53984375 -6.03515625 0.3671875 C-4 0 -4 0 0 0 Z " fill="#9DCC84" transform="translate(965,22)"/>
<path d="M0 0 C0 3.56229451 -0.76109009 4.41109679 -2.875 7.1875 C-3.40867187 7.90292969 -3.94234375 8.61835938 -4.4921875 9.35546875 C-4.98976563 9.89816406 -5.48734375 10.44085938 -6 11 C-6.66 11 -7.32 11 -8 11 C-8 11.66 -8 12.32 -8 13 C-8.66 12.67 -9.32 12.34 -10 12 C-8.52149287 10.18696196 -7.04217625 8.37458402 -5.5625 6.5625 C-4.32693359 5.04849609 -4.32693359 5.04849609 -3.06640625 3.50390625 C-1 1 -1 1 0 0 Z " fill="#8FC173" transform="translate(655,207)"/>
<path d="M0 0 C0 0.66 0 1.32 0 2 C-5.48675196 3.86783046 -10.22192976 4.2358396 -16 4 C-13.36518239 2.60025314 -10.89629292 1.58775959 -8 0.875 C-7.34 0.70742188 -6.68 0.53984375 -6 0.3671875 C-4 0 -4 0 0 0 Z " fill="#9DCB82" transform="translate(916,35)"/>
<path d="M0 0 C0.33 0.66 0.66 1.32 1 2 C0.59007812 2.47050781 0.18015625 2.94101562 -0.2421875 3.42578125 C-0.78101563 4.04839844 -1.31984375 4.67101562 -1.875 5.3125 C-2.40867187 5.92738281 -2.94234375 6.54226563 -3.4921875 7.17578125 C-5.1640447 9.13498212 -5.1640447 9.13498212 -7 12 C-7.66 12 -8.32 12 -9 12 C-7.79618552 9.50638429 -6.54571278 7.31856917 -5 5 C-4.34 5 -3.68 5 -3 5 C-2.690625 4.360625 -2.38125 3.72125 -2.0625 3.0625 C-1 1 -1 1 0 0 Z " fill="#94C578" transform="translate(567,309)"/>
<path d="M0 0 C0.33 0.66 0.66 1.32 1 2 C-0.25 4.5625 -0.25 4.5625 -2 7 C-2.99 7.33 -3.98 7.66 -5 8 C-5.33 8.99 -5.66 9.98 -6 11 C-6.66 11 -7.32 11 -8 11 C-6.63629701 8.00779732 -5.05091917 5.70973471 -2.875 3.25 C-2.33617187 2.63640625 -1.79734375 2.0228125 -1.2421875 1.390625 C-0.62730469 0.70226562 -0.62730469 0.70226562 0 0 Z " fill="#99CA7D" transform="translate(890,114)"/>
<path d="M0 0 C0.33 0.66 0.66 1.32 1 2 C-1.53363068 6.22271781 -3.56620325 8.78310162 -8 11 C-6.63629701 8.00779732 -5.05091917 5.70973471 -2.875 3.25 C-2.33617187 2.63640625 -1.79734375 2.0228125 -1.2421875 1.390625 C-0.62730469 0.70226562 -0.62730469 0.70226562 0 0 Z " fill="#DBF1CF" transform="translate(481,496)"/>
<path d="M0 0 C0.66 0.33 1.32 0.66 2 1 C0.71451591 2.33929505 -0.57858155 3.67128643 -1.875 5 C-2.59429688 5.7425 -3.31359375 6.485 -4.0546875 7.25 C-6 9 -6 9 -8 9 C-6.4169423 4.7257442 -3.49431596 2.73468206 0 0 Z " fill="#2B2B2B" transform="translate(919,248)"/>
<path d="M0 0 C0.33 1.32 0.66 2.64 1 4 C0.34 4 -0.32 4 -1 4 C-1.2475 4.639375 -1.495 5.27875 -1.75 5.9375 C-3 8 -3 8 -5.078125 8.62890625 C-6.02945313 8.81259766 -6.02945313 8.81259766 -7 9 C-6.02180976 7.68677212 -5.0424189 6.37443848 -4.0625 5.0625 C-3.51722656 4.33160156 -2.97195313 3.60070312 -2.41015625 2.84765625 C-1 1 -1 1 0 0 Z " fill="#8FC374" transform="translate(629,237)"/>
<path d="M0 0 C0.33 0.66 0.66 1.32 1 2 C-0.98 4.64 -2.96 7.28 -5 10 C-5.99 9.67 -6.98 9.34 -8 9 C-5.36 6.03 -2.72 3.06 0 0 Z " fill="#90C372" transform="translate(805,213)"/>
<path d="M0 0 C-0.66 0 -1.32 0 -2 0 C-2 0.66 -2 1.32 -2 2 C-8.435 2.495 -8.435 2.495 -15 3 C-12.41464321 1.27642881 -10.96188386 0.55264982 -8.0625 -0.1875 C-7.39347656 -0.36667969 -6.72445312 -0.54585937 -6.03515625 -0.73046875 C-3.75319112 -1.03268678 -2.17973341 -0.68756692 0 0 Z " fill="#A1CE88" transform="translate(889,43)"/>
<path d="M0 0 C1.60080151 4.00200378 0.29279692 7.04556236 -1 11 C-1.66 11 -2.32 11 -3 11 C-2.67 8.03 -2.34 5.06 -2 2 C-1.34 2 -0.68 2 0 2 C0 1.34 0 0.68 0 0 Z " fill="#618F45" transform="translate(510,406)"/>
<path d="M0 0 C0.99 0.33 1.98 0.66 3 1 C0.69 3.64 -1.62 6.28 -4 9 C-4.33 8.01 -4.66 7.02 -5 6 C-4.34 6 -3.68 6 -3 6 C-2.67 4.68 -2.34 3.36 -2 2 C-1.34 2 -0.68 2 0 2 C0 1.34 0 0.68 0 0 Z " fill="#85BE66" transform="translate(846,250)"/>
<path d="M0 0 C2.97 0.33 5.94 0.66 9 1 C9 1.66 9 2.32 9 3 C7.02 3.33 5.04 3.66 3 4 C2.01 2.68 1.02 1.36 0 0 Z " fill="#A1CB86" transform="translate(994,163)"/>
<path d="M0 0 C0.99 0 1.98 0 3 0 C1.68775452 3.93673644 0.08089673 6.22719294 -3 9 C-3.33 8.01 -3.66 7.02 -4 6 C-3.34 6 -2.68 6 -2 6 C-2 5.34 -2 4.68 -2 4 C-1.34 4 -0.68 4 0 4 C0 2.68 0 1.36 0 0 Z " fill="#71A953" transform="translate(529,361)"/>
<path d="M0 0 C1 2 1 2 0.375 4.5625 C-1 7 -1 7 -3.625 7.8125 C-4.40875 7.874375 -5.1925 7.93625 -6 8 C-4.02 5.36 -2.04 2.72 0 0 Z " fill="#95C579" transform="translate(852,158)"/>
<path d="M0 0 C-0.33 0.66 -0.66 1.32 -1 2 C-4.3 2 -7.6 2 -11 2 C-4.31914894 -1.34042553 -4.31914894 -1.34042553 0 0 Z " fill="#98CA7E" transform="translate(927,33)"/>
<path d="M0 0 C0.33 0.99 0.66 1.98 1 3 C-0.375 4.5 -0.375 4.5 -2 6 C-2.66 6 -3.32 6 -4 6 C-4 6.66 -4 7.32 -4 8 C-4.66 7.67 -5.32 7.34 -6 7 C-4.02 4.69 -2.04 2.38 0 0 Z " fill="#97C77D" transform="translate(585,288)"/>
<path d="M0 0 C0.33 0.99 0.66 1.98 1 3 C-0.65 4.65 -2.3 6.3 -4 8 C-4.66 7.67 -5.32 7.34 -6 7 C-4.02 4.69 -2.04 2.38 0 0 Z " fill="#E3F6D8" transform="translate(851,248)"/>
<path d="M0 0 C0.33 0.66 0.66 1.32 1 2 C0.06553465 4.03144641 -0.93224776 6.03533587 -2 8 C-3.32 7.67 -4.64 7.34 -6 7 C-4.02 4.69 -2.04 2.38 0 0 Z " fill="#97C97B" transform="translate(845,166)"/>
<path d="M0 0 C2.97 0.495 2.97 0.495 6 1 C5.1646875 1.37125 5.1646875 1.37125 4.3125 1.75 C1.60028873 3.21606015 -0.63587365 5.02989471 -3 7 C-2.67 5.68 -2.34 4.36 -2 3 C-1.34 3 -0.68 3 0 3 C0 2.01 0 1.02 0 0 Z " fill="#8ABF6E" transform="translate(664,281)"/>
<path d="M0 0 C0.33 0.99 0.66 1.98 1 3 C-0.375 4.5 -0.375 4.5 -2 6 C-2.66 6 -3.32 6 -4 6 C-4 6.66 -4 7.32 -4 8 C-4.66 7.67 -5.32 7.34 -6 7 C-4.02 4.69 -2.04 2.38 0 0 Z " fill="#8DC071" transform="translate(613,256)"/>
<path d="M0 0 C2.475 0.495 2.475 0.495 5 1 C5.33 2.32 5.66 3.64 6 5 C6.66 5 7.32 5 8 5 C7.67 5.66 7.34 6.32 7 7 C5.83040013 6.02433888 4.66438823 5.044375 3.5 4.0625 C2.8503125 3.51722656 2.200625 2.97195312 1.53125 2.41015625 C1.0259375 1.94480469 0.520625 1.47945312 0 1 C0 0.67 0 0.34 0 0 Z " fill="#E0F5D4" transform="translate(703,235)"/>
<path d="M0 0 C0.33 0.99 0.66 1.98 1 3 C-0.65 4.65 -2.3 6.3 -4 8 C-4.66 7.67 -5.32 7.34 -6 7 C-4.02 4.69 -2.04 2.38 0 0 Z " fill="#8DC271" transform="translate(528,354)"/>
<path d="M0 0 C0.33 0.99 0.66 1.98 1 3 C-0.65 4.65 -2.3 6.3 -4 8 C-4.66 7.67 -5.32 7.34 -6 7 C-4.02 4.69 -2.04 2.38 0 0 Z " fill="#93C678" transform="translate(535,346)"/>
<path d="M0 0 C0.33 0.66 0.66 1.32 1 2 C0.21654285 3.17219543 -0.57702836 4.33763668 -1.375 5.5 C-1.81585937 6.1496875 -2.25671875 6.799375 -2.7109375 7.46875 C-3.13632812 7.9740625 -3.56171875 8.479375 -4 9 C-4.66 9 -5.32 9 -6 9 C-4.47291037 5.56404834 -2.40072955 2.88087546 0 0 Z " fill="#DFF5D3" transform="translate(828,274)"/>
<path d="M0 0 C0.33 0.99 0.66 1.98 1 3 C-0.65 4.65 -2.3 6.3 -4 8 C-4.66 7.67 -5.32 7.34 -6 7 C-4.02 4.69 -2.04 2.38 0 0 Z " fill="#DBF2CF" transform="translate(863,234)"/>
<path d="M0 0 C2.31 1.65 4.62 3.3 7 5 C6.34 5.66 5.68 6.32 5 7 C5 6.34 5 5.68 5 5 C4.01 5.33 3.02 5.66 2 6 C1.34 4.02 0.68 2.04 0 0 Z " fill="#83BD64" transform="translate(697,231)"/>
<path d="M0 0 C0.33 0.99 0.66 1.98 1 3 C-0.65 4.65 -2.3 6.3 -4 8 C-4.66 7.67 -5.32 7.34 -6 7 C-4.02 4.69 -2.04 2.38 0 0 Z " fill="#DCF2D1" transform="translate(895,197)"/>
<path d="M0 0 C0.33 0.66 0.66 1.32 1 2 C-0.98 4.97 -0.98 4.97 -3 8 C-3.99 7.67 -4.98 7.34 -6 7 C-4.02 4.69 -2.04 2.38 0 0 Z " fill="#97C77B" transform="translate(833,180)"/>
<path d="M0 0 C2.31 0.66 4.62 1.32 7 2 C7.33 3.65 7.66 5.3 8 7 C6.66382648 6.02471263 5.3311249 5.04466681 4 4.0625 C3.2575 3.51722656 2.515 2.97195312 1.75 2.41015625 C1.1725 1.94480469 0.595 1.47945312 0 1 C0 0.67 0 0.34 0 0 Z " fill="#9AC97E" transform="translate(972,144)"/>
</svg>
